<svg xmlns="http://www.w3.org/2000/svg" width="1184.88" height="1120.148" viewBox="0 0 1184.88 1120.148">
  <path id="online-marketing-hIgeoQjS_iE-unsplash" d="M289.633,11.427c89.654,26.032,161.758,89.5,237.058,142.979,49.575,35.284,104.284,56.03,159.176,81.386C825.373,300.612,964.11,402.8,936.51,559.86q-1.865,10.6-4.789,21.236c-33.91,123.508-171.6,241.282-321.83,236.63-54.923-1.69-101.056-21.883-141.38-50.59-24.188-17.212-47.209-43.859-80.741-48.284-35.376-4.672-74.194,15.8-106.343,28.184-47.854,18.441-98.352,37.681-150.109,39.187C12.343,789.634-13.32,706.558,5.643,604.4c9.22-49.668,25.51-97.614,37.681-146.575,17.211-69.43,8.022-132.16-2.766-201.836-9.62-62.115-13.216-130.439,21.514-182.9C101.382,13.548,181.477-8.335,251.921,2.791a301.764,301.764,0,0,1,37.712,8.636Z" transform="matrix(-0.921, -0.391, 0.391, -0.921, 865.317, 1120.148)" fill="#f6f6f6"/>
</svg>
