<svg xmlns="http://www.w3.org/2000/svg" width="1370.638" height="1415.344" viewBox="0 0 1370.638 1415.344">
  <path id="Shape" d="M602.758,173.425C705.87,203.365,788.8,276.361,875.4,337.868c57.018,40.58,119.939,64.441,183.072,93.6,160.449,74.551,320.013,192.086,288.27,372.718-26.476,150.551-193,302.233-375.652,296.577-63.168-1.944-116.227-25.168-162.6-58.184-27.82-19.8-54.3-50.443-92.862-55.533-40.686-5.373-85.332,18.169-122.307,32.415-55.038,21.209-113.116,43.338-172.644,45.07C283.84,1068.458,254.324,972.91,276.134,855.41c10.6-57.124,29.339-112.268,43.338-168.579,19.8-79.853,9.226-152-3.181-232.136-11.064-71.44-15.2-150.021,24.744-210.361,45.211-68.471,137.33-93.639,218.35-80.843a347.061,347.061,0,0,1,43.373,9.933Z" transform="matrix(0.53, -0.848, 0.848, 0.53, -278.816, 1060.617)" fill="#cf0000" opacity="0.04"/>
</svg>
