<svg xmlns="http://www.w3.org/2000/svg" xmlns:xlink="http://www.w3.org/1999/xlink" width="40" height="40" viewBox="0 0 40 40">
  <defs>
    <linearGradient id="linear-gradient" x1="0.5" x2="0.5" y2="1" gradientUnits="objectBoundingBox">
      <stop offset="0" stop-color="#ef4747"/>
      <stop offset="1" stop-color="#cf0000"/>
    </linearGradient>
  </defs>
  <g id="Group_8623" data-name="Group 8623" transform="translate(-1566 -203)">
    <circle id="Shape" cx="20" cy="20" r="20" transform="translate(1566 203)" fill="#cf0000" opacity="0.14"/>
    <g id="Group_73911" data-name="Group 73911" transform="translate(-7.073 1.852)">
      <path id="Path_7186" data-name="Path 7186" d="M3567,1021.111v-10.627a2.638,2.638,0,0,1,2.985-2.983h10.176a2.637,2.637,0,0,1,2.985,2.983v10.627a2.637,2.637,0,0,1-2.985,2.983h-10.176A2.638,2.638,0,0,1,3567,1021.111Z" transform="translate(-1982 -794.298)" fill="url(#linear-gradient)"/>
      <path id="Path_7187" data-name="Path 7187" d="M3579.1,1015.6h-7.175a.673.673,0,1,1,0-1.346h7.175a.673.673,0,1,1,0,1.346Zm-2.018,2.915a.673.673,0,0,0-.673-.673h-4.484a.673.673,0,1,0,0,1.345h4.484A.673.673,0,0,0,3577.081,1018.511Z" transform="translate(-1982.438 -794.994)" fill="#fff"/>
      <path id="Path_7188" data-name="Path 7188" d="M3579.451,1008.928a.645.645,0,0,1-.673-.613v-2.452a.676.676,0,0,1,1.345,0v2.452A.645.645,0,0,1,3579.451,1008.928Zm-3.313-.613v-2.452a.676.676,0,0,0-1.346,0v2.452a.676.676,0,0,0,1.346,0Zm-3.987,0v-2.452a.676.676,0,0,0-1.346,0v2.452a.676.676,0,0,0,1.346,0Z" transform="translate(-1982.392 -793.708)" fill="url(#linear-gradient)"/>
    </g>
  </g>
</svg>
