<svg xmlns="http://www.w3.org/2000/svg" xmlns:xlink="http://www.w3.org/1999/xlink" width="14" height="18.75" viewBox="0 0 14 18.75">
  <defs>
    <linearGradient id="linear-gradient" x1="0.5" x2="0.5" y2="1" gradientUnits="objectBoundingBox">
      <stop offset="0" stop-color="#ef4747"/>
      <stop offset="1" stop-color="#cf0000"/>
    </linearGradient>
  </defs>
  <g id="Group_73917" data-name="Group 73917" transform="translate(-1586.196 -224.631)">
    <path id="Path_6765" data-name="Path 6765" d="M2253,3086v-6a2.652,2.652,0,0,1,3-3h8a2.652,2.652,0,0,1,3,3v6a2.652,2.652,0,0,1-3,3h-8A2.652,2.652,0,0,1,2253,3086Z" transform="translate(-666.804 -2845.619)" fill="url(#linear-gradient)"/>
    <path id="Path_6766" data-name="Path 6766" d="M2256.75,3077v-2a3.25,3.25,0,0,1,6.5,0v2h.75a4.743,4.743,0,0,1,.75.058V3075a4.75,4.75,0,0,0-9.5,0v2.058a4.743,4.743,0,0,1,.75-.058Z" transform="translate(-666.804 -2845.619)" fill="url(#linear-gradient)"/>
    <path id="Path_6767" data-name="Path 6767" d="M2261.27,3082a1.251,1.251,0,0,0-1.25-1.25h-.01a1.246,1.246,0,0,0-1.245,1.25,1.226,1.226,0,0,0,.485.962V3085a.75.75,0,0,0,1.5,0v-2.013A1.227,1.227,0,0,0,2261.27,3082Z" transform="translate(-666.804 -2845.619)" fill="#fff"/>
  </g>
</svg>
