<svg xmlns="http://www.w3.org/2000/svg" xmlns:xlink="http://www.w3.org/1999/xlink" width="66" height="66" viewBox="0 0 66 66">
  <defs>
    <linearGradient id="linear-gradient" x1="0.5" x2="0.5" y2="1" gradientUnits="objectBoundingBox">
      <stop offset="0" stop-color="#ef4747"/>
      <stop offset="1" stop-color="#cf0000"/>
    </linearGradient>
    <filter id="Ellipse_1" x="0" y="0" width="66" height="66" filterUnits="userSpaceOnUse">
      <feOffset dy="4" input="SourceAlpha"/>
      <feGaussianBlur stdDeviation="4" result="blur"/>
      <feFlood flood-opacity="0.302"/>
      <feComposite operator="in" in2="blur"/>
      <feComposite in="SourceGraphic"/>
    </filter>
  </defs>
  <g id="Group_8622" data-name="Group 8622" transform="translate(-4595.953 -3581.516)">
    <g transform="matrix(1, 0, 0, 1, 4595.95, 3581.52)" filter="url(#Ellipse_1)">
      <g id="Ellipse_1-2" data-name="Ellipse 1" transform="translate(12 8)" stroke="#fff" stroke-width="2" fill="url(#linear-gradient)">
        <circle cx="21" cy="21" r="21" stroke="none"/>
        <circle cx="21" cy="21" r="20" fill="none"/>
      </g>
    </g>
    <g id="Group_8550" data-name="Group 8550" transform="translate(4623.535 3604.539)">
      <g id="Path_7471" data-name="Path 7471" transform="translate(-181 -521)" fill="#fff">
        <path d="M 181.8207855224609 532.5916748046875 C 181.5749053955078 532.5916748046875 181.3436889648438 532.495849609375 181.1697235107422 532.32177734375 C 180.9956665039062 532.1482543945312 180.8997497558594 531.9170532226562 180.8997497558594 531.6708374023438 C 180.8997497558594 531.4246826171875 180.9956665039062 531.1934814453125 181.1698455810547 531.0198364257812 L 191.0198059082031 521.1697998046875 C 191.1939239501953 520.9957275390625 191.4251251220703 520.8997802734375 191.6708526611328 520.8997802734375 C 191.9165649414062 520.8997802734375 192.1477661132812 520.9957275390625 192.3218841552734 521.1697998046875 C 192.4959564208984 521.3434448242188 192.5918731689453 521.5746459960938 192.5918731689453 521.8208618164062 C 192.5918731689453 522.0670166015625 192.4959564208984 522.2982177734375 192.3217926025391 522.471923828125 L 182.4718322753906 532.32177734375 C 182.2978820800781 532.495849609375 182.0666656494141 532.5916748046875 181.8207855224609 532.5916748046875 Z" stroke="none"/>
        <path d="M 181.8207855224609 532.49169921875 C 182.0309295654297 532.49169921875 182.2410430908203 532.4112548828125 182.401123046875 532.2510986328125 L 192.2511749267578 522.401123046875 C 192.5721130371094 522.0810546875 192.5721130371094 521.5606079101562 192.2511749267578 521.2405395507812 C 191.9302062988281 520.91943359375 191.4114532470703 520.9194946289062 191.0905151367188 521.2405395507812 L 181.2404479980469 531.0906372070312 C 180.9195098876953 531.41064453125 180.9195098876953 531.9310913085938 181.2404479980469 532.2510986328125 C 181.4005279541016 532.4112548828125 181.6106719970703 532.49169921875 181.8207855224609 532.49169921875 M 181.8207855224609 532.6917114257812 C 181.5481872558594 532.6917114257812 181.2918548583984 532.58544921875 181.0989837646484 532.3925170898438 C 180.9061126708984 532.2001342773438 180.7997436523438 531.9437866210938 180.7997436523438 531.6708374023438 C 180.7997436523438 531.39794921875 180.9061126708984 531.1416015625 181.0992279052734 530.9490356445312 L 190.9490966796875 521.09912109375 C 191.1421051025391 520.9061279296875 191.3984222412109 520.7998046875 191.6708526611328 520.7998046875 C 191.9432830810547 520.7998046875 192.1996002197266 520.9061279296875 192.3926086425781 521.09912109375 C 192.5855255126953 521.29150390625 192.6918792724609 521.5479125976562 192.6918792724609 521.8208618164062 C 192.6918792724609 522.09375 192.5855255126953 522.3501586914062 192.3924102783203 522.542724609375 L 182.5425415039062 532.3925170898438 C 182.3497161865234 532.58544921875 182.0933837890625 532.6917114257812 181.8207855224609 532.6917114257812 Z" stroke="none" fill="#fff"/>
      </g>
      <g id="Path_7472" data-name="Path 7472" transform="translate(-181 -521)" fill="#fff">
        <path d="M 191.6708526611328 532.5916748046875 C 191.4249420166016 532.5916748046875 191.1937255859375 532.495849609375 191.0197906494141 532.32177734375 L 181.1697387695312 522.4718627929688 C 180.9956665039062 522.2982177734375 180.8997497558594 522.0670166015625 180.8997497558594 521.8208618164062 C 180.8997497558594 521.5746459960938 180.9956665039062 521.3434448242188 181.1698455810547 521.1697387695312 C 181.3438568115234 520.9957275390625 181.5750732421875 520.8997802734375 181.8207855224609 520.8997802734375 C 182.0665130615234 520.8997802734375 182.2977142333984 520.9957275390625 182.4718322753906 521.1697998046875 L 192.3218841552734 531.0198974609375 C 192.4959564208984 531.1934814453125 192.5918731689453 531.4246826171875 192.5918731689453 531.6708374023438 C 192.5918731689453 531.9170532226562 192.4959564208984 532.1482543945312 192.3217926025391 532.3218994140625 C 192.1479339599609 532.495849609375 191.9167327880859 532.5916748046875 191.6708526611328 532.5916748046875 Z" stroke="none"/>
        <path d="M 191.6708526611328 532.49169921875 C 191.8809814453125 532.49169921875 192.0910949707031 532.4112548828125 192.2511749267578 532.2510986328125 C 192.5721130371094 531.9310913085938 192.5721130371094 531.41064453125 192.2511749267578 531.0906372070312 L 182.401123046875 521.2405395507812 C 182.0801849365234 520.9195556640625 181.5614471435547 520.91943359375 181.2404479980469 521.2405395507812 C 180.9195098876953 521.5606079101562 180.9195098876953 522.0810546875 181.2404479980469 522.401123046875 L 191.0905151367188 532.2510986328125 C 191.2505798339844 532.4112548828125 191.4607086181641 532.49169921875 191.6708526611328 532.49169921875 M 191.6708526611328 532.6917114257812 C 191.3982238769531 532.6917114257812 191.1418914794922 532.58544921875 190.9490509033203 532.3924560546875 L 181.0990295410156 522.5425415039062 C 180.9060974121094 522.3501586914062 180.7997436523438 522.09375 180.7997436523438 521.8208618164062 C 180.7997436523438 521.5479125976562 180.9060974121094 521.29150390625 181.0992126464844 521.0989379882812 C 181.2920379638672 520.9061279296875 181.5483703613281 520.7998046875 181.8207855224609 520.7998046875 C 182.0932312011719 520.7998046875 182.3495635986328 520.9061279296875 182.5425415039062 521.09912109375 L 192.3925933837891 530.94921875 C 192.5855255126953 531.1416015625 192.6918792724609 531.39794921875 192.6918792724609 531.6708374023438 C 192.6918792724609 531.9437866210938 192.5855255126953 532.2001342773438 192.3923950195312 532.3927001953125 C 192.1997833251953 532.58544921875 191.9434509277344 532.6917114257812 191.6708526611328 532.6917114257812 Z" stroke="none" fill="#fff"/>
      </g>
    </g>
  </g>
</svg>
