<svg xmlns="http://www.w3.org/2000/svg" width="20.056" height="20.057" viewBox="0 0 20.056 20.057">
  <g id="Group_73919" data-name="Group 73919" transform="translate(-1592.696 -246.5)">
    <circle id="Ellipse_118" data-name="Ellipse 118" cx="4.114" cy="4.114" r="4.114" transform="translate(1596.305 246.5)" fill="#fff"/>
    <path id="Path_5751" data-name="Path 5751" d="M1116.444,1450.228a.318.318,0,0,1-.089.216l-4.145,4.166a1.541,1.541,0,0,0-.453,1.09v1.743a.334.334,0,0,1-.093.221.28.28,0,0,1-.216.093H1106.1c-2.355,0-3.6-1.234-3.6-3.579,0-2.623,1.481-5.678,5.657-5.678h4.114a5.509,5.509,0,0,1,4.042,1.481A.41.41,0,0,1,1116.444,1450.228Z" transform="translate(490.196 -1191.714)" fill="#fff" opacity="0.4"/>
    <path id="Path_5752" data-name="Path 5752" d="M1120.239,1453.609l-4.668,4.648H1113v-2.57l4.648-4.668Zm1.718-3.157-1.152-1.152a1.026,1.026,0,0,0-1.45,0l-.986,1,2.591,2.591,1-.986A1.026,1.026,0,0,0,1121.957,1450.452Z" transform="translate(490.496 -1191.7)" fill="#fff"/>
  </g>
</svg>
