<svg id="_000000ff" data-name="#000000ff" xmlns="http://www.w3.org/2000/svg" width="86.186" height="86.186" viewBox="0 0 86.186 86.186">
  <path id="Path_7467" data-name="Path 7467" d="M18.739,0H20.8a45.9,45.9,0,0,1,8.9.8,11.915,11.915,0,0,1,6.045,3.01,11.438,11.438,0,0,1,2.771,5.27A36.678,36.678,0,0,1,39.459,17a72.73,72.73,0,0,1-.342,10.241c-.392,3.03-1.17,6.243-3.4,8.477C33.537,37.9,30.4,38.7,27.438,39.092a61.785,61.785,0,0,1-7.912.407A41.688,41.688,0,0,1,8.578,38.381a10.161,10.161,0,0,1-5.972-4.111C.892,31.6.444,28.362.183,25.262.056,23.784.044,22.3,0,20.818V18.737a43.005,43.005,0,0,1,.934-9.5A11.552,11.552,0,0,1,3.695,3.867,11.359,11.359,0,0,1,9.24.939,42.629,42.629,0,0,1,18.739,0Z" fill="#c7c7c7"/>
  <path id="Path_7468" data-name="Path 7468" d="M312.969,21.885A3.586,3.586,0,0,1,318.43,25q.005,4.459,0,8.917,4.462,0,8.925,0a3.591,3.591,0,1,1,0,7.181c-2.976,0-5.95,0-8.925,0-.005,2.99,0,5.977,0,8.967a3.589,3.589,0,0,1-7.178.02c-.008-2.995,0-5.991-.005-8.986-2.993-.007-5.986,0-8.979-.005a3.589,3.589,0,0,1,0-7.178c2.993-.005,5.984,0,8.977,0,0-2.978,0-5.957,0-8.935A3.581,3.581,0,0,1,312.969,21.885Z" transform="translate(-248.406 -17.761)" fill="#c7c7c7"/>
  <path id="Path_7469" data-name="Path 7469" d="M8.81,278.4a43.834,43.834,0,0,1,11.046-1.047,43.092,43.092,0,0,1,10.871,1.055,10.763,10.763,0,0,1,5.405,3.161,13.219,13.219,0,0,1,2.724,6.356,59.1,59.1,0,0,1,.614,11.245c-.1,3.614-.281,7.336-1.663,10.724a9.451,9.451,0,0,1-5.19,5.233c-3.727,1.542-7.838,1.613-11.808,1.724H18.584A44.454,44.454,0,0,1,9.6,316a11.8,11.8,0,0,1-5.819-2.931A11.507,11.507,0,0,1,.934,307.6,42.959,42.959,0,0,1,0,298.114v-2.081a44.938,44.938,0,0,1,.83-9.012A12.843,12.843,0,0,1,3.015,282,10.56,10.56,0,0,1,8.81,278.4Z" transform="translate(0 -230.663)" fill="#c7c7c7"/>
  <path id="Path_7470" data-name="Path 7470" d="M288.453,277.917a56.326,56.326,0,0,1,9.053-.547,49.554,49.554,0,0,1,9.189.71,14.112,14.112,0,0,1,5.052,1.961,9.942,9.942,0,0,1,3.853,5.417,38.346,38.346,0,0,1,1.266,10.753v1.911c-.106,3.974-.178,8.085-1.707,11.819a9.491,9.491,0,0,1-5.218,5.222c-3.734,1.527-7.848,1.6-11.822,1.7h-2.062c-3.926-.106-7.981-.185-11.677-1.67a9.493,9.493,0,0,1-5.277-5.176,25.484,25.484,0,0,1-1.628-8.479c-.135-2.633-.126-5.269-.047-7.9a32.45,32.45,0,0,1,1.109-7.895,10.527,10.527,0,0,1,3.042-5.006A13.759,13.759,0,0,1,288.453,277.917Z" transform="translate(-230.68 -230.68)" fill="#c7c7c7"/>
</svg>
