<svg xmlns="http://www.w3.org/2000/svg" xmlns:xlink="http://www.w3.org/1999/xlink" width="431.74" height="321.698" viewBox="0 0 431.74 321.698">
  <defs>
    <linearGradient id="linear-gradient" x1="0.5" x2="0.5" y2="1" gradientUnits="objectBoundingBox">
      <stop offset="0" stop-color="#ef4747"/>
      <stop offset="1" stop-color="#cf0000"/>
    </linearGradient>
  </defs>
  <g id="Resume-rafiki" transform="translate(0 -55)">
    <g id="freepik--background-complete--inject-8" transform="translate(0 55)">
      <rect id="Rectangle_17357" data-name="Rectangle 17357" width="431.74" height="0.216" transform="translate(0 282.704)" fill="#e0e0e0"/>
      <rect id="Rectangle_17358" data-name="Rectangle 17358" width="29.134" height="0.216" transform="translate(74.182 291.848)" fill="#e0e0e0"/>
      <rect id="Rectangle_17359" data-name="Rectangle 17359" width="17.287" height="0.216" transform="translate(50.557 291.951)" fill="#e0e0e0"/>
      <rect id="Rectangle_17360" data-name="Rectangle 17360" width="81.849" height="0.216" transform="translate(179.889 287.323)" fill="#e0e0e0"/>
      <rect id="Rectangle_17361" data-name="Rectangle 17361" width="26.094" height="0.216" transform="translate(118.78 297.97)" fill="#e0e0e0"/>
      <rect id="Rectangle_17362" data-name="Rectangle 17362" width="67.93" height="0.216" transform="translate(289.266 290.294)" fill="#e0e0e0"/>
      <path id="Path_8085" data-name="Path 8085" d="M209.861,299.192H43.132a4.93,4.93,0,0,1-4.922-4.93V59.887A4.93,4.93,0,0,1,43.132,55H209.861a4.93,4.93,0,0,1,4.93,4.93V294.262A4.93,4.93,0,0,1,209.861,299.192ZM43.132,55.173a4.715,4.715,0,0,0-4.706,4.715V294.262a4.715,4.715,0,0,0,4.706,4.715H209.861a4.723,4.723,0,0,0,4.715-4.715V59.887a4.723,4.723,0,0,0-4.715-4.715Z" transform="translate(-5.216 -55)" fill="#e0e0e0"/>
      <path id="Path_8086" data-name="Path 8086" d="M426.169,299.192H259.43a4.939,4.939,0,0,1-4.93-4.93V59.887A4.939,4.939,0,0,1,259.43,55H426.169a4.93,4.93,0,0,1,4.913,4.887V294.262A4.931,4.931,0,0,1,426.169,299.192ZM259.43,55.173a4.723,4.723,0,0,0-4.715,4.715V294.262a4.723,4.723,0,0,0,4.715,4.715H426.169a4.723,4.723,0,0,0,4.715-4.715V59.887a4.723,4.723,0,0,0-4.715-4.715Z" transform="translate(-34.744 -55)" fill="#e0e0e0"/>
      <rect id="Rectangle_17363" data-name="Rectangle 17363" width="22.001" height="100.699" transform="translate(341.714 182.004)" fill="#e0e0e0"/>
      <path id="Path_8087" data-name="Path 8087" d="M415.688,380.52h4.179V368.63H411.31Z" transform="translate(-56.152 -97.817)" fill="#f0f0f0"/>
      <rect id="Rectangle_17364" data-name="Rectangle 17364" width="22.001" height="100.699" transform="translate(259.493 182.004)" fill="#e0e0e0"/>
      <rect id="Rectangle_17365" data-name="Rectangle 17365" width="85.873" height="93.403" transform="translate(277.842 182.004)" fill="#f0f0f0"/>
      <rect id="Rectangle_17366" data-name="Rectangle 17366" width="30.878" height="38.295" transform="translate(322.182 260.547) rotate(-90)" fill="#e0e0e0"/>
      <rect id="Rectangle_17367" data-name="Rectangle 17367" width="30.878" height="38.295" transform="translate(281.089 260.547) rotate(-90)" fill="#e0e0e0"/>
      <path id="Path_8088" data-name="Path 8088" d="M349.517,324.247h-7.581a11.967,11.967,0,0,1-8.693-3.746l24.97,0a11.968,11.968,0,0,1-8.7,3.747Z" transform="translate(-45.494 -91.246)" fill="#f0f0f0"/>
      <path id="Path_8089" data-name="Path 8089" d="M397.557,324.247h-7.573a11.984,11.984,0,0,1-8.7-3.746h24.979A12,12,0,0,1,397.557,324.247Z" transform="translate(-52.052 -91.246)" fill="#f0f0f0"/>
      <rect id="Rectangle_17368" data-name="Rectangle 17368" width="30.878" height="38.295" transform="translate(322.182 219.911) rotate(-90)" fill="#e0e0e0"/>
      <rect id="Rectangle_17369" data-name="Rectangle 17369" width="30.878" height="38.295" transform="translate(281.08 219.92) rotate(-90)" fill="#e0e0e0"/>
      <path id="Path_8090" data-name="Path 8090" d="M349.517,277.189h-7.581a11.994,11.994,0,0,1-8.7-3.739h24.972A11.994,11.994,0,0,1,349.517,277.189Z" transform="translate(-45.494 -84.823)" fill="#f0f0f0"/>
      <path id="Path_8091" data-name="Path 8091" d="M397.557,277.189h-7.573a12.011,12.011,0,0,1-8.7-3.739h24.98A12.028,12.028,0,0,1,397.557,277.189Z" transform="translate(-52.052 -84.823)" fill="#f0f0f0"/>
      <path id="Path_8092" data-name="Path 8092" d="M325.949,380.52H321.77V368.63h8.566Z" transform="translate(-43.928 -97.817)" fill="#f0f0f0"/>
      <path id="Path_8093" data-name="Path 8093" d="M344.167,246.408c0,3.851,2.677,6.528-1.174,6.528s-12.762-2.677-12.762-6.528a6.968,6.968,0,1,1,13.937,0Z" transform="translate(-45.083 -80.18)" fill="#e0e0e0"/>
      <path id="Path_8094" data-name="Path 8094" d="M357.971,250.258c0,3.842,2.677,6.528-1.174,6.528S344,254.1,344,250.258a6.968,6.968,0,1,1,13.937,0Z" transform="translate(-46.963 -80.705)" fill="#e0e0e0"/>
      <path id="Path_8095" data-name="Path 8095" d="M371.207,247.9c0,3.842,2.677,6.528-1.174,6.528s-12.762-2.685-12.762-6.528a6.968,6.968,0,0,1,13.937,0Z" transform="translate(-48.774 -80.383)" fill="#e0e0e0"/>
      <path id="Path_8096" data-name="Path 8096" d="M325.29,250s.57,13.591,22.407,13.591S370.1,250,370.1,250Z" transform="translate(-44.408 -81.621)" fill="#e6e6e6"/>
      <rect id="Rectangle_17370" data-name="Rectangle 17370" width="110.724" height="122.528" transform="translate(253.906 16.397)" fill="#e0e0e0"/>
      <path id="Path_8097" data-name="Path 8097" d="M415.313,69.61H285.575a1.1,1.1,0,0,0-1.105,1.1h0a1.105,1.105,0,0,0,1.105,1.105H415.313a1.1,1.1,0,0,0,1.1-1.105h0a1.1,1.1,0,0,0-1.1-1.1Z" transform="translate(-38.836 -56.995)" fill="#e0e0e0"/>
      <rect id="Rectangle_17371" data-name="Rectangle 17371" width="113.228" height="122.528" transform="translate(256.1 16.397)" fill="#e6e6e6"/>
      <rect id="Rectangle_17372" data-name="Rectangle 17372" width="110.724" height="8.73" transform="translate(253.906 138.925)" fill="#e0e0e0"/>
      <rect id="Rectangle_17373" data-name="Rectangle 17373" width="113.228" height="8.73" transform="translate(263.923 138.925)" fill="#e6e6e6"/>
      <rect id="Rectangle_17374" data-name="Rectangle 17374" width="109.368" height="100.069" transform="translate(362.748 22.969) rotate(90)" fill="#f5f5f5"/>
      <path id="Path_8098" data-name="Path 8098" d="M330.52,190.978,369.126,81.61h18.219L348.739,190.978Z" transform="translate(-45.122 -58.633)" fill="#fafafa"/>
      <path id="Path_8099" data-name="Path 8099" d="M356.15,190.978,394.756,81.61h7.106L363.256,190.978Z" transform="translate(-48.621 -58.633)" fill="#fafafa"/>
      <rect id="Rectangle_17375" data-name="Rectangle 17375" width="109.368" height="0.838" transform="translate(362.748 22.977) rotate(90)" fill="#e0e0e0"/>
      <rect id="Rectangle_17376" data-name="Rectangle 17376" width="11.32" height="105.535" transform="translate(251.437 10.647)" fill="#ebebeb"/>
      <rect id="Rectangle_17377" data-name="Rectangle 17377" width="8.816" height="105.535" transform="translate(258.345 10.647)" fill="#e0e0e0"/>
      <rect id="Rectangle_17378" data-name="Rectangle 17378" width="11.32" height="105.535" transform="translate(262.757 10.647)" fill="#ebebeb"/>
      <rect id="Rectangle_17379" data-name="Rectangle 17379" width="8.816" height="105.535" transform="translate(269.665 10.647)" fill="#e0e0e0"/>
      <rect id="Rectangle_17380" data-name="Rectangle 17380" width="11.32" height="105.535" transform="translate(274.077 10.647)" fill="#ebebeb"/>
      <rect id="Rectangle_17381" data-name="Rectangle 17381" width="6.519" height="105.535" transform="translate(352.015 10.647)" fill="#ebebeb"/>
      <rect id="Rectangle_17382" data-name="Rectangle 17382" width="5.086" height="105.535" transform="translate(355.996 10.647)" fill="#e0e0e0"/>
      <rect id="Rectangle_17383" data-name="Rectangle 17383" width="6.519" height="105.535" transform="translate(358.534 10.647)" fill="#ebebeb"/>
      <rect id="Rectangle_17384" data-name="Rectangle 17384" width="5.086" height="105.535" transform="translate(362.515 10.647)" fill="#e0e0e0"/>
      <rect id="Rectangle_17385" data-name="Rectangle 17385" width="6.519" height="105.535" transform="translate(365.062 10.647)" fill="#ebebeb"/>
      <rect id="Rectangle_17386" data-name="Rectangle 17386" width="11.795" height="32.182" transform="translate(83.507 43.727)" fill="#e6e6e6"/>
      <path id="Path_8100" data-name="Path 8100" d="M77.448,151.44,73.7,161.664h3.748l22.934-10.224Z" transform="translate(-10.061 -68.166)" fill="#f0f0f0"/>
      <path id="Path_8101" data-name="Path 8101" d="M73.7,151.44v10.224L96.643,151.44Z" transform="translate(-10.061 -68.166)" fill="#e0e0e0"/>
      <path id="Path_8102" data-name="Path 8102" d="M181.609,151.44l-3.739,10.224h3.739l22.943-10.224Z" transform="translate(-24.283 -68.166)" fill="#f0f0f0"/>
      <path id="Path_8103" data-name="Path 8103" d="M177.87,151.44v10.224L200.8,151.44Z" transform="translate(-24.283 -68.166)" fill="#e0e0e0"/>
      <rect id="Rectangle_17387" data-name="Rectangle 17387" width="24.946" height="7.78" transform="translate(71.755 83.758) rotate(180)" fill="#e0e0e0"/>
      <rect id="Rectangle_17388" data-name="Rectangle 17388" width="124.022" height="7.78" transform="translate(71.747 75.978)" fill="#f0f0f0"/>
      <path id="Path_8104" data-name="Path 8104" d="M128.02,136.743H99.309l-3.549-39h28.711Z" transform="translate(-13.073 -60.835)" fill="#e0e0e0"/>
      <path id="Path_8105" data-name="Path 8105" d="M129.74,136.743h-28.7l-3.558-39h28.711Z" transform="translate(-13.308 -60.835)" fill="#f0f0f0"/>
      <path id="Path_8106" data-name="Path 8106" d="M105.7,133.109,102.94,102.74h20.076l2.763,30.369Z" transform="translate(-14.053 -61.517)" fill="#fafafa"/>
      <path id="Path_8107" data-name="Path 8107" d="M148.26,128.24s.527,12.667,20.879,12.667,20.879-12.667,20.879-12.667Z" transform="translate(-20.24 -64.999)" fill="#e6e6e6"/>
      <path id="Path_8108" data-name="Path 8108" d="M118.25,361.9H86.794a3.324,3.324,0,0,1-1.977-6.044l.509.691a2.47,2.47,0,0,0,1.468,4.447H118.25a7.279,7.279,0,0,0,7.271-7.271V260.628a7.927,7.927,0,0,1,7.909-7.918h9.412v.863H133.43a7.063,7.063,0,0,0-7.046,7.055v93.135a8.151,8.151,0,0,1-8.134,8.134Z" transform="translate(-11.386 -81.991)" fill="#e0e0e0"/>
      <rect id="Rectangle_17389" data-name="Rectangle 17389" width="56.653" height="110.206" transform="translate(155.288 172.498)" fill="#e0e0e0"/>
      <rect id="Rectangle_17390" data-name="Rectangle 17390" width="4.671" height="110.206" transform="translate(209.403 172.498)" fill="#ebebeb"/>
      <rect id="Rectangle_17391" data-name="Rectangle 17391" width="112.65" height="8.264" transform="translate(215.516 180.761) rotate(180)" fill="#ebebeb"/>
      <rect id="Rectangle_17392" data-name="Rectangle 17392" width="56.653" height="110.206" transform="translate(45.54 172.498)" fill="#e0e0e0"/>
      <rect id="Rectangle_17393" data-name="Rectangle 17393" width="4.671" height="110.206" transform="translate(99.646 172.498)" fill="#ebebeb"/>
      <path id="Path_8109" data-name="Path 8109" d="M98.03,216.67h52.793l7.65,31.172H105.68Z" transform="translate(-13.383 -77.071)" fill="#e0e0e0"/>
      <path id="Path_8110" data-name="Path 8110" d="M106.89,252.77l.216,1.727H159.9l-.207-1.727Z" transform="translate(-14.593 -81.999)" fill="#e0e0e0"/>
      <path id="Path_8111" data-name="Path 8111" d="M99.92,216.67h52.793l7.65,31.172H107.57Z" transform="translate(-13.641 -77.071)" fill="#f0f0f0"/>
      <path id="Path_8112" data-name="Path 8112" d="M108.971,246.642,102.02,218.32h49.857l6.951,28.322Z" transform="translate(-13.928 -77.296)" fill="#fafafa"/>
      <path id="Path_8113" data-name="Path 8113" d="M124.71,252.77l.207,1.727h58.138l-.216-1.727Z" transform="translate(-17.025 -81.999)" fill="#f0f0f0"/>
      <path id="Path_8114" data-name="Path 8114" d="M76.642,241.867s-7.771-13.393,3.014-24.057c0,0,2.806,1.839,2.763,4.317s-3,3.091-2.375,5.181,3.454,4.076,1.606,5.777.294,3.212.173,5.3S76.642,241.867,76.642,241.867Z" transform="translate(-10.093 -77.227)" fill="#f0f0f0"/>
      <path id="Path_8115" data-name="Path 8115" d="M75.869,243.631s3.152-15.163-10.439-21.881c0,0-2.09,2.634-1.269,4.956s3.834,1.977,3.877,4.136-1.986,4.948.3,5.984.725,3.143,1.5,5.077S75.869,243.631,75.869,243.631Z" transform="translate(-8.733 -77.765)" fill="#f0f0f0"/>
      <path id="Path_8116" data-name="Path 8116" d="M64,243.2s.259,9.99,10.163,9.99S84.3,243.2,84.3,243.2Z" transform="translate(-8.737 -80.693)" fill="#e0e0e0"/>
      <path id="Path_8117" data-name="Path 8117" d="M217.354,372.151h-1.969l-5.639-27.77-.984-4.861L202.614,309.3H179.05l-12.771,62.853H164.31L177.323,308.1a.95.95,0,0,1,.941-.769H203.4a.95.95,0,0,1,.941.769l5.4,26.578.993,4.861Z" transform="translate(-22.432 -89.448)" fill="#ebebeb"/>
      <path id="Path_8118" data-name="Path 8118" d="M261.164,372.151h-1.977l-12.771-62.887H222.86l-6.148,30.274-.984,4.844-5.639,27.77H208.12l6.623-32.631.976-4.844,5.405-26.578a.95.95,0,0,1,.941-.768H247.2a.967.967,0,0,1,.95.768Z" transform="translate(-28.412 -89.448)" fill="#ebebeb"/>
      <path id="Path_8119" data-name="Path 8119" d="M202.29,293.917h43.295a15.188,15.188,0,0,0,15.171-14.878l1.615-65.8A11.07,11.07,0,0,0,251.318,202H224.179a11.07,11.07,0,0,0-10.992,9.809Z" transform="translate(-27.616 -75.068)" fill="#e6e6e6"/>
      <path id="Path_8120" data-name="Path 8120" d="M0,0H46.136a2.159,2.159,0,0,1,2.159,2.159v.207A5.932,5.932,0,0,1,42.362,8.3H0Z" transform="translate(198.281 218.849) rotate(180)" fill="#e6e6e6"/>
    </g>
    <g id="freepik--Shadow--inject-8" transform="translate(48.45 357.149)">
      <ellipse id="Ellipse_278" data-name="Ellipse 278" cx="167.42" cy="9.775" rx="167.42" ry="9.775" fill="#f5f5f5" opacity="0"/>
    </g>
    <g id="freepik--Character--inject-8" transform="translate(129.263 67.745)">
      <path id="Path_8121" data-name="Path 8121" d="M275.714,167.647l.561.475c.207.181.44.354.665.527.449.354.863.708,1.382,1.045.933.682,1.926,1.3,2.919,1.926a43.815,43.815,0,0,0,6.277,3.2,47.878,47.878,0,0,0,6.675,2.28c.57.155,1.157.259,1.727.389l.863.19c.181,0,0,0,0,.043a.95.95,0,0,0-.328.147c-.078.078-.078.078-.043.06a3.212,3.212,0,0,0,.4-.82,13.317,13.317,0,0,0,.561-3.065c.1-1.131.138-2.323.129-3.523,0-2.409-.19-4.87-.38-7.34s-.492-4.948-.812-7.435-.674-4.974-1.045-7.426l3.247-.743a137.588,137.588,0,0,1,3.454,14.99,73.152,73.152,0,0,1,.941,7.771,39.051,39.051,0,0,1,.095,4.041,18.832,18.832,0,0,1-.561,4.412,8.54,8.54,0,0,1-1.174,2.59,5.638,5.638,0,0,1-1.373,1.39,5.034,5.034,0,0,1-2.064.863,5.821,5.821,0,0,1-1.934,0l-.993-.164c-.665-.112-1.338-.2-1.995-.345a48.672,48.672,0,0,1-7.771-2.228,49.686,49.686,0,0,1-7.3-3.506c-1.166-.7-2.306-1.433-3.411-2.236-.553-.4-1.1-.863-1.641-1.243-.268-.224-.535-.44-.8-.682s-.518-.44-.863-.768Z" transform="translate(-166.276 -80.384)" fill="#e4897b"/>
      <path id="Path_8122" data-name="Path 8122" d="M264.976,166.247c9.5-1.287,17.131,6.372,17.131,6.372l-8.687,13.4s-9.308-5.958-10.949-10.016C260.779,171.782,260.114,166.877,264.976,166.247Z" transform="translate(-164.924 -82.912)" fill="url(#linear-gradient)"/>
      <path id="Path_8124" data-name="Path 8124" d="M298.672,148.78l-3.152-6.321,8.264-.069s.164,4.412-1.926,6.908Z" transform="translate(-169.607 -79.675)" fill="#e4897b"/>
      <path id="Path_8125" data-name="Path 8125" d="M296.988,134.6l6.148,1.1.648,5.63-8.264.069Z" transform="translate(-169.607 -78.612)" fill="#e4897b"/>
      <path id="Path_8126" data-name="Path 8126" d="M226.67,405l7.737.743,5.354-18.168-7.737-.751Z" transform="translate(-160.208 -113.045)" fill="#e4897b"/>
      <path id="Path_8127" data-name="Path 8127" d="M169.7,374.6l5.734,5.388,12.382-13.608-5.734-5.388Z" transform="translate(-152.43 -109.518)" fill="#e4897b"/>
      <path id="Path_8128" data-name="Path 8128" d="M177.432,378.72l-4.317-7.771a.63.63,0,0,0-.777-.285l-6.64,2.521a1.278,1.278,0,0,0-.613,1.8c1.546,2.677,2.435,3.894,4.317,7.3,1.166,2.107,3.454,6.908,5.051,9.826s4.559,1.459,4.153.112c-1.848-6.044-1.494-9.438-.976-12.089A2.072,2.072,0,0,0,177.432,378.72Z" transform="translate(-151.778 -110.833)" fill="#263238"/>
      <path id="Path_8129" data-name="Path 8129" d="M234.751,406h-9.377a.769.769,0,0,0-.734.57l-2.046,7.417a1.174,1.174,0,0,0,1.148,1.485h21.6c3.454,0,4.145-3.454,2.729-3.782-6.355-1.4-10.025-3.342-11.985-5.181A1.952,1.952,0,0,0,234.751,406Z" transform="translate(-159.646 -115.663)" fill="#263238"/>
      <path id="Path_8130" data-name="Path 8130" d="M240.134,387.573l-2.763,9.369H229.41l2.979-10.111Z" transform="translate(-160.582 -113.046)" fill="#ce6f64"/>
      <path id="Path_8131" data-name="Path 8131" d="M183.021,361l5.742,5.38-6.39,7.011-5.734-5.38Z" transform="translate(-153.378 -109.52)" fill="#ce6f64"/>
      <path id="Path_8132" data-name="Path 8132" d="M269.378,153.834a9.433,9.433,0,0,0-5.742-8.471s7.106-13.453,3.454-22.381-15.689-10.5-19.506-6.329c-6.709-.285-8.842,9.351-8.842,9.351s-5.613.941-7.124,5.025,3.091,8.687,3.091,8.687-6.407.863-8.764,5.794-.907,11.476,6.174,17.123c10.293,8.2,29.212-2.09,29.212-2.09S269.447,161.052,269.378,153.834Z" transform="translate(-159.966 -75.861)" fill="#263238"/>
      <path id="Path_8133" data-name="Path 8133" d="M268.428,166.563s3.454,1.511-8.082,47.077L228.4,210.868c1.658-12.952,2.375-21-1.537-48.251A94.118,94.118,0,0,1,240.6,162a102.854,102.854,0,0,1,14.524,1.252,136.888,136.888,0,0,1,13.306,3.307Z" transform="translate(-160.234 -82.348)" fill="#cf0000"/>
      <path id="Path_8135" data-name="Path 8135" d="M261.534,164.333c-1.658-.4-3.454-.777-5.094-1.079a102.856,102.856,0,0,0-14.524-1.261c-1.667-.06-3.333-.06-4.9,0l1.071,2.038a37.2,37.2,0,0,0,13.41,13.695l2.383,1.33,2.219-1.58C261.7,173.477,262.527,168.279,261.534,164.333Z" transform="translate(-161.621 -82.345)" fill="#fafafa"/>
      <path id="Path_8136" data-name="Path 8136" d="M245.549,143.21c.509,4.758.682,13.4-2.849,16.233a32.73,32.73,0,0,0,11.692,11.933c6.77-4.818,2.832-10.681,2.832-10.681-5.1-1.727-4.637-5.544-3.454-9.1Z" transform="translate(-162.396 -79.787)" fill="#e4897b"/>
      <path id="Path_8137" data-name="Path 8137" d="M249.79,147.17l4.887,4.965a15.109,15.109,0,0,0-.673,2.539c-1.96-.458-4.81-2.5-4.844-4.611A8.5,8.5,0,0,1,249.79,147.17Z" transform="translate(-163.278 -80.328)" fill="#ce6f64"/>
      <path id="Path_8138" data-name="Path 8138" d="M245.643,129.205c-.941,7.771-1.5,11.061,1.667,15.733,4.766,7.011,14.541,6.459,17.779-.863,2.919-6.614,3.963-18.237-3.022-22.684a10.7,10.7,0,0,0-16.423,7.814Z" transform="translate(-162.698 -76.576)" fill="#e4897b"/>
      <path id="Path_8139" data-name="Path 8139" d="M251.238,119.62c6,1.554.069,19.808-9.5,14.515,0,0,.432-7.711,3.091-10.983a9.93,9.93,0,0,1,6.407-3.532Z" transform="translate(-162.265 -76.567)" fill="#263238"/>
      <path id="Path_8140" data-name="Path 8140" d="M252,120.489c2.59,4.214,21.8,12.2,15.344,3.134S252,120.489,252,120.489Z" transform="translate(-163.666 -76.425)" fill="#263238"/>
      <path id="Path_8141" data-name="Path 8141" d="M242.9,138.1a5.768,5.768,0,0,0,1.373,4.162c1.33,1.511,3.083.6,3.635-1.235.492-1.641.4-4.4-1.373-5.25A2.59,2.59,0,0,0,242.9,138.1Z" transform="translate(-162.421 -78.742)" fill="#e4897b"/>
      <path id="Path_8142" data-name="Path 8142" d="M260.489,221.489s10.819,47.871,3.6,81.616c-4.835,22.606-22.286,68.267-22.286,68.267l-13.643-.345s13.2-47.923,15.94-66.764c4.671-32.242-7.029-84.8-7.029-84.8Z" transform="translate(-160.411 -90.197)" fill="#263238"/>
      <path id="Path_8143" data-name="Path 8143" d="M250.071,233l-6.822,10.759a329.293,329.293,0,0,1,3.9,38.537C256.746,265.121,252.2,242.092,250.071,233Z" transform="translate(-162.471 -92.045)" fill="#263238"/>
      <path id="Path_8144" data-name="Path 8144" d="M242.6,395.324l-16.855-.432.976-5.172,18.4.872Z" transform="translate(-160.081 -113.441)" fill="#262626"/>
      <path id="Path_8146" data-name="Path 8146" d="M246.677,220.855s-6.347,50.773-20.11,78.49c-11.113,22.355-40.765,54.3-40.765,54.3l-7.581-7.814s20.033-34.634,28.3-49.512c20.257-36.465,3.7-64.286,15.18-77.713Z" transform="translate(-153.594 -90.081)" fill="#263238"/>
      <path id="Path_8147" data-name="Path 8147" d="M186.332,373.952l-9.792-9.542,3.255-4.421,10.664,11.027Z" transform="translate(-153.364 -109.382)" fill="#262626"/>
      <path id="Path_8149" data-name="Path 8149" d="M227.918,216.347l-1.684,2.737c-.138.216.112.466.475.492l33.546,2.9c.294,0,.544-.095.579-.276l.535-2.832c0-.2-.2-.389-.518-.414l-32.389-2.806a.587.587,0,0,0-.544.2Z" transform="translate(-160.143 -89.744)" fill="#407bff"/>
      <path id="Path_8150" data-name="Path 8150" d="M227.918,216.347l-1.684,2.737c-.138.216.112.466.475.492l33.546,2.9c.294,0,.544-.095.579-.276l.535-2.832c0-.2-.2-.389-.518-.414l-32.389-2.806a.587.587,0,0,0-.544.2Z" transform="translate(-160.143 -89.744)" opacity="0.3"/>
      <path id="Path_8151" data-name="Path 8151" d="M232.69,220.343l-.863-.078c-.173,0-.294-.112-.276-.224l.734-3.678c0-.112.181-.19.354-.173l.863.078c.173,0,.294.112.276.225l-.725,3.678C233.018,220.291,232.862,220.343,232.69,220.343Z" transform="translate(-160.874 -89.75)" fill="#263238"/>
      <path id="Path_8152" data-name="Path 8152" d="M262.609,222.943l-.863-.078c-.173,0-.294-.112-.276-.225l.734-3.687c0-.1.181-.181.354-.164l.863.078c.173,0,.294.112.276.216l-.725,3.687C262.938,222.883,262.791,222.952,262.609,222.943Z" transform="translate(-164.958 -90.105)" fill="#263238"/>
      <path id="Path_8153" data-name="Path 8153" d="M247.65,221.644l-.863-.069c-.173,0-.294-.121-.276-.225l.734-3.687c0-.1.181-.181.354-.164l.863.069c.173,0,.294.121.276.225l-.725,3.687A.364.364,0,0,1,247.65,221.644Z" transform="translate(-162.916 -89.929)" fill="#263238"/>
      <path id="Path_8154" data-name="Path 8154" d="M258.826,135.521c-.112.622.13,1.192.535,1.269s.863-.371.95-1-.121-1.2-.535-1.269S258.972,134.933,258.826,135.521Z" transform="translate(-164.594 -78.6)" fill="#263238"/>
      <path id="Path_8155" data-name="Path 8155" d="M267,137.02c-.112.622.129,1.192.535,1.269s.864-.371.95-1-.121-1.2-.535-1.269S267.151,136.39,267,137.02Z" transform="translate(-165.709 -78.805)" fill="#263238"/>
      <path id="Path_8156" data-name="Path 8156" d="M267.93,135.975l1.58-.155S268.526,136.839,267.93,135.975Z" transform="translate(-165.841 -78.778)" fill="#263238"/>
      <path id="Path_8157" data-name="Path 8157" d="M264.513,138a17.272,17.272,0,0,0,1.511,4.412,2.737,2.737,0,0,1-2.314,0Z" transform="translate(-165.265 -79.076)" fill="#de5753"/>
      <path id="Path_8158" data-name="Path 8158" d="M260.043,145.019h0a5.328,5.328,0,0,1-3.955-2.893.155.155,0,0,1,.086-.2.147.147,0,0,1,.2.078,5.077,5.077,0,0,0,3.722,2.7.155.155,0,1,1,0,.311Z" transform="translate(-164.223 -79.61)" fill="#263238"/>
      <path id="Path_8159" data-name="Path 8159" d="M256.83,129.784a.311.311,0,0,1-.19-.561,3.644,3.644,0,0,1,3.29-.665.311.311,0,1,1-.207.587,3.013,3.013,0,0,0-2.7.57A.345.345,0,0,1,256.83,129.784Z" transform="translate(-164.282 -77.768)" fill="#263238"/>
      <path id="Path_8160" data-name="Path 8160" d="M271.191,134.117a.32.32,0,0,1-.242-.112,3.057,3.057,0,0,0-2.5-1.183.319.319,0,0,1-.345-.276.3.3,0,0,1,.276-.337,3.635,3.635,0,0,1,3.057,1.4.32.32,0,0,1,0,.44.346.346,0,0,1-.242.069Z" transform="translate(-165.864 -78.285)" fill="#263238"/>
      <path id="Path_8161" data-name="Path 8161" d="M221.112,175.545a77.62,77.62,0,0,1-4.317,7.495c-1.554,2.383-3.195,4.715-4.965,6.96a74.727,74.727,0,0,1-5.742,6.433c-1.053.993-2.081,2-3.212,2.936l-.863.708-.207.173-.276.216a6.362,6.362,0,0,1-.57.414,10.611,10.611,0,0,1-2.539,1.278,12.953,12.953,0,0,1-5.259.579,20.411,20.411,0,0,1-4.663-1.028,36.266,36.266,0,0,1-7.935-3.912,73.146,73.146,0,0,1-13.073-10.828l2.3-2.409c2.064,1.658,4.24,3.307,6.467,4.8a66.3,66.3,0,0,0,6.8,4.179,35.92,35.92,0,0,0,7.046,2.944,10.22,10.22,0,0,0,6.286.086,6.908,6.908,0,0,0,2.392-1.727c.958-.863,1.848-1.822,2.755-2.754,1.77-1.926,3.411-3.989,5.025-6.044a77.779,77.779,0,0,0,4.49-6.562c.717-1.123,1.4-2.262,2.072-3.4s1.321-2.34,1.882-3.411Z" transform="translate(-152.129 -83.809)" fill="#e4897b"/>
      <path id="Path_8162" data-name="Path 8162" d="M171.386,186.625l-3.074-6.355-5.112,6.493s3.385,2.824,6.675,2.72Z" transform="translate(-151.543 -84.847)" fill="#e4897b"/>
      <path id="Path_8163" data-name="Path 8163" d="M164.773,178.12l-2.893,5.535,1.14,2.815,5.112-6.493Z" transform="translate(-151.363 -84.553)" fill="#e4897b"/>
      <path id="Path_8164" data-name="Path 8164" d="M225.291,162.7c-3.92.691-9.421,11.942-9.421,11.942l10.768,9.731s6.977-9.369,6.562-14.481C232.846,165.532,230.281,161.819,225.291,162.7Z" transform="translate(-158.733 -82.43)" fill="url(#linear-gradient)"/>
      <path id="Path_8166" data-name="Path 8166" d="M180.82,384.309a.863.863,0,0,1-.3-.052c-.941-.311-1.554-2.046-1.839-3.057a.155.155,0,0,1,.052-.164.173.173,0,0,1,.173,0c.285.147,2.789,1.494,2.867,2.478a.579.579,0,0,1-.268.553A1.123,1.123,0,0,1,180.82,384.309Zm-1.727-2.832c.432,1.39.993,2.305,1.528,2.487a.734.734,0,0,0,.708-.164.285.285,0,0,0,.138-.276c-.052-.6-1.52-1.563-2.383-2.046Z" transform="translate(-153.655 -112.252)" fill="#cf0000"/>
      <path id="Path_8167" data-name="Path 8167" d="M181.209,381.735a5.612,5.612,0,0,1-2.461-.579.138.138,0,0,1-.078-.129.156.156,0,0,1,.086-.138c.078,0,2.064-1.131,3.134-.751a.924.924,0,0,1,.579.553.622.622,0,0,1-.138.769,1.813,1.813,0,0,1-1.123.276Zm-2.038-.708c.863.363,2.5.587,2.962.19.078-.06.147-.173.052-.415a.63.63,0,0,0-.4-.371A4.388,4.388,0,0,0,179.171,381.027Z" transform="translate(-153.655 -112.122)" fill="#cf0000"/>
      <path id="Path_8168" data-name="Path 8168" d="M241.071,407.457a12.691,12.691,0,0,1-2.59-.328.155.155,0,0,1-.121-.138.147.147,0,0,1,.086-.155c.389-.181,3.782-1.727,4.646-1.174a.527.527,0,0,1,.225.484,1.166,1.166,0,0,1-.466.863,3.109,3.109,0,0,1-1.779.449Zm-2.021-.535c1.01.19,2.875.432,3.644-.147a.863.863,0,0,0,.345-.648.224.224,0,0,0-.086-.207C242.47,405.592,240.458,406.3,239.051,406.922Z" transform="translate(-161.804 -115.601)" fill="#cf0000"/>
      <path id="Path_8169" data-name="Path 8169" d="M238.555,406.835a.138.138,0,0,1-.1,0,.164.164,0,0,1-.052-.155c0-.138.812-3.5,2.651-3.281.466.052.587.285.613.466.121.863-2.029,2.59-3.048,3Zm2.331-3.169c-1.183,0-1.865,1.951-2.1,2.737,1.114-.587,2.642-1.986,2.59-2.53,0-.043,0-.164-.337-.2Z" transform="translate(-161.809 -115.307)" fill="#cf0000"/>
      <path id="Path_8170" data-name="Path 8170" d="M259.72,134.494l1.58-.164S260.316,135.366,259.72,134.494Z" transform="translate(-164.72 -78.575)" fill="#263238"/>
      <path id="Path_8171" data-name="Path 8171" d="M180.489,77.53l-25.309,163.6,142.405,22L322.894,99.523ZM239,170.587a33.434,33.434,0,1,1,38.149-27.89A33.434,33.434,0,0,1,239,170.587Z" transform="translate(-150.448 -70.821)" fill="#cf0000" opacity="0.3"/>
      <path id="Path_8172" data-name="Path 8172" d="M292.537,255.866h-.216L149.7,233.77v-.216L175.078,69.76h.207l142.621,22.1v.216Zm-142.345-22.45,141.982,21.958,25.24-163.2L175.432,70.252Z" transform="translate(-149.7 -69.76)" fill="#cf0000" opacity="0.3"/>
      <path id="Path_8173" data-name="Path 8173" d="M252.71,176.294a34.946,34.946,0,0,1-5.328-.414h0a34.677,34.677,0,1,1,5.328.414Zm-4.93-2.97a32.13,32.13,0,1,0-26.846-36.672,32.13,32.13,0,0,0,26.846,36.672Z" transform="translate(-159.031 -74.836)" fill="#fafafa"/>
      <rect id="Rectangle_17394" data-name="Rectangle 17394" width="31.742" height="7.132" transform="translate(29.675 105.038) rotate(8.79)" fill="#fff"/>
      <rect id="Rectangle_17396" data-name="Rectangle 17396" width="21.475" height="7.132" transform="translate(65.176 110.529) rotate(8.79)" fill="#fff"/>
      <rect id="Rectangle_17398" data-name="Rectangle 17398" width="114.782" height="7.132" transform="translate(27.461 119.321) rotate(8.79)" fill="#fafafa"/>
      <rect id="Rectangle_17399" data-name="Rectangle 17399" width="57.15" height="7.142" transform="translate(25.968 134.223) rotate(8.616)" fill="#fafafa"/>
      <rect id="Rectangle_17400" data-name="Rectangle 17400" width="38.183" height="7.132" transform="translate(91.206 144.523) rotate(8.79)" fill="#fafafa"/>
      <rect id="Rectangle_17401" data-name="Rectangle 17401" width="91.762" height="7.132" transform="translate(22.83 149.301) rotate(8.79)" fill="#fafafa"/>
      <path id="Path_8174" data-name="Path 8174" d="M349.315,289.027h-.863a25.784,25.784,0,0,0-.786-6.355l.863-.207a26.577,26.577,0,0,1,.786,6.562Zm-3.385-11.156a26.215,26.215,0,0,0-8.35-9.982l.5-.7a27.148,27.148,0,0,1,8.635,10.293Z" transform="translate(-175.349 -96.713)" fill="#cf0000"/>
      <path id="Path_8177" data-name="Path 8177" d="M316.336,264.91a23.806,23.806,0,1,0,23.806,23.806,23.806,23.806,0,0,0-23.806-23.806Zm0,44.53a20.724,20.724,0,1,1,20.724-20.724A20.724,20.724,0,0,1,316.336,309.44Z" transform="translate(-169.199 -96.402)" fill="#cf0000"/>
      <circle id="Ellipse_279" data-name="Ellipse 279" cx="20.715" cy="20.715" r="20.715" transform="translate(126.422 171.599)" fill="#407bff"/>
      <circle id="Ellipse_280" data-name="Ellipse 280" cx="20.715" cy="20.715" r="20.715" transform="translate(126.422 171.599)" fill="url(#linear-gradient)"/>
      <path id="Path_8178" data-name="Path 8178" d="M314.448,304.236,302.29,292.078l3.057-3.048,9.1,9.1L330,282.58l3.048,3.057Z" transform="translate(-170.532 -98.814)" fill="#fafafa"/>
    </g>
  </g>
</svg>
