<svg xmlns="http://www.w3.org/2000/svg" width="173.768" height="119.628" viewBox="0 0 173.768 119.628">
  <g id="Group_8525" data-name="Group 8525" transform="translate(-74.104 -21.14)">
    <path id="Path_4007" data-name="Path 4007" d="M84.131,161.732,139.856,53.926l35.833,62.708H141.136v8.105h47.778L143.7,43.9h-7.679Z" transform="translate(-10.027 -22.762)" fill="#cf0000"/>
    <path id="Path_4122" data-name="Path 4122" d="M9.538-11h-3.2V-24.768h3.2Zm27.64,0H34.99L24.878-19.512a9.8,9.8,0,0,1-1.147-1.121q.133,1.334.133,2.108V-11H20.983V-24.768h2.188l9.685,8.111a14.924,14.924,0,0,1,1.574,1.494q-.133-1.921-.133-2.374v-7.23h2.881Zm28.174-6.963a6.45,6.45,0,0,1-3.041,5.9Q60.575-11,56.654-11H48.623V-24.768h8.858a8.822,8.822,0,0,1,5.6,1.6A6.183,6.183,0,0,1,65.351-17.965Zm-3.308-.053q0-4.3-4.536-4.3H51.825v8.724H55.96a9.155,9.155,0,0,0,4.269-.747A3.845,3.845,0,0,0,62.043-18.018ZM89.87-11H75.649V-24.768H89.736v2.348H78.851v3.068H85.2V-17h-6.35v3.415H89.87Zm23.878,0H100.221V-24.768h3.2v11.179h10.325Zm18.676-11.312h-6.35V-11h-3.2V-22.313h-6.323v-2.455h15.874ZM155.074-11h-3.6l-1.654-3.015h-8.724L139.493-11h-3.2l7.79-13.767h3.095Zm-6.59-5.5-2.961-5.6-3.068,5.6Z" transform="translate(92.672 134.845)" fill="#262626"/>
    <path id="Path_4121" data-name="Path 4121" d="M3.445-19.587v10.46H2.079v-10.46ZM14.4-17.5a3.333,3.333,0,0,1,2.431.908,3.494,3.494,0,0,1,.93,2.619v4.847H16.411v-4.652a2.644,2.644,0,0,0-.615-1.883,2.2,2.2,0,0,0-1.681-.653,2.251,2.251,0,0,0-1.718.675,2.759,2.759,0,0,0-.638,1.966v4.547H10.393V-17.35h1.366v1.171a2.711,2.711,0,0,1,1.1-.975A3.421,3.421,0,0,1,14.4-17.5Zm11.886,1.276v4.847a1.153,1.153,0,0,0,.255.848,1.257,1.257,0,0,0,.885.248h1.005v1.156H27.2a2.449,2.449,0,0,1-1.711-.525,2.254,2.254,0,0,1-.57-1.726v-4.847H23.854V-17.35H24.92v-2.071h1.366v2.071h2.146v1.126Zm15.923,2.671a8.038,8.038,0,0,1-.045.825H35.59a2.659,2.659,0,0,0,.833,1.9,2.649,2.649,0,0,0,1.838.683,2.525,2.525,0,0,0,1.478-.413,2.185,2.185,0,0,0,.833-1.1h1.471a3.535,3.535,0,0,1-1.321,1.928,3.986,3.986,0,0,1-2.461.743,4.157,4.157,0,0,1-2.094-.525A3.718,3.718,0,0,1,34.72-11.01a4.631,4.631,0,0,1-.525-2.244,4.7,4.7,0,0,1,.51-2.236,3.582,3.582,0,0,1,1.433-1.478,4.266,4.266,0,0,1,2.124-.518,4.127,4.127,0,0,1,2.071.51,3.533,3.533,0,0,1,1.388,1.4A4.141,4.141,0,0,1,42.208-13.554ZM40.8-13.839a2.519,2.519,0,0,0-.345-1.343,2.245,2.245,0,0,0-.938-.855A2.926,2.926,0,0,0,38.2-16.33a2.531,2.531,0,0,0-1.763.66,2.691,2.691,0,0,0-.833,1.831ZM50-16.015a2.62,2.62,0,0,1,1.028-1.1,3.177,3.177,0,0,1,1.628-.39v1.411h-.36Q50-16.09,50-13.6v4.472H48.631V-17.35H50ZM62.858-17.5a3.333,3.333,0,0,1,2.431.908,3.494,3.494,0,0,1,.93,2.619v4.847H64.869v-4.652a2.644,2.644,0,0,0-.615-1.883,2.2,2.2,0,0,0-1.681-.653,2.251,2.251,0,0,0-1.718.675,2.759,2.759,0,0,0-.638,1.966v4.547H58.851V-17.35h1.366v1.171a2.711,2.711,0,0,1,1.1-.975A3.421,3.421,0,0,1,62.858-17.5Zm9.71,4.232a4.619,4.619,0,0,1,.51-2.214,3.7,3.7,0,0,1,1.4-1.478,3.849,3.849,0,0,1,1.988-.525,3.649,3.649,0,0,1,1.876.465,3.1,3.1,0,0,1,1.186,1.171v-1.5h1.381v8.224H79.531v-1.531a3.217,3.217,0,0,1-1.208,1.193,3.614,3.614,0,0,1-1.868.473,3.728,3.728,0,0,1-1.981-.54,3.789,3.789,0,0,1-1.4-1.516A4.72,4.72,0,0,1,72.568-13.268Zm6.963.015a3.344,3.344,0,0,0-.375-1.621,2.65,2.65,0,0,0-1.013-1.058,2.76,2.76,0,0,0-1.4-.368,2.763,2.763,0,0,0-1.4.36,2.613,2.613,0,0,0-1.005,1.051,3.343,3.343,0,0,0-.375,1.621,3.421,3.421,0,0,0,.375,1.643,2.654,2.654,0,0,0,1.005,1.066,2.719,2.719,0,0,0,1.4.368,2.76,2.76,0,0,0,1.4-.368,2.638,2.638,0,0,0,1.013-1.066A3.388,3.388,0,0,0,79.531-13.253Zm9.98-2.971v4.847a1.153,1.153,0,0,0,.255.848,1.257,1.257,0,0,0,.885.248h1.005v1.156H90.426a2.449,2.449,0,0,1-1.711-.525,2.254,2.254,0,0,1-.57-1.726v-4.847H87.08V-17.35h1.066v-2.071h1.366v2.071h2.146v1.126Zm9.124-2.461a.9.9,0,0,1-.66-.27.9.9,0,0,1-.27-.66.9.9,0,0,1,.27-.66.9.9,0,0,1,.66-.27.856.856,0,0,1,.638.27.911.911,0,0,1,.263.66.911.911,0,0,1-.263.66A.856.856,0,0,1,98.635-18.686Zm.66,1.336v8.224H97.93V-17.35Zm10.535,8.359a4.21,4.21,0,0,1-2.093-.525,3.739,3.739,0,0,1-1.471-1.493,4.578,4.578,0,0,1-.533-2.244,4.447,4.447,0,0,1,.548-2.229,3.774,3.774,0,0,1,1.493-1.486,4.332,4.332,0,0,1,2.116-.518,4.332,4.332,0,0,1,2.116.518A3.788,3.788,0,0,1,113.5-15.49a4.435,4.435,0,0,1,.548,2.236,4.382,4.382,0,0,1-.563,2.244,3.9,3.9,0,0,1-1.523,1.493A4.368,4.368,0,0,1,109.831-8.991Zm0-1.2a2.884,2.884,0,0,0,1.381-.345,2.626,2.626,0,0,0,1.043-1.035,3.317,3.317,0,0,0,.4-1.681,3.368,3.368,0,0,0-.39-1.681,2.555,2.555,0,0,0-1.02-1.028,2.847,2.847,0,0,0-1.366-.338,2.834,2.834,0,0,0-1.373.338,2.476,2.476,0,0,0-1,1.028,3.478,3.478,0,0,0-.375,1.681,3.571,3.571,0,0,0,.368,1.7,2.444,2.444,0,0,0,.983,1.028A2.761,2.761,0,0,0,109.831-10.192ZM124.478-17.5a3.333,3.333,0,0,1,2.431.908,3.5,3.5,0,0,1,.93,2.619v4.847h-1.351v-4.652a2.644,2.644,0,0,0-.615-1.883,2.2,2.2,0,0,0-1.681-.653,2.251,2.251,0,0,0-1.718.675,2.759,2.759,0,0,0-.638,1.966v4.547h-1.366V-17.35h1.366v1.171a2.711,2.711,0,0,1,1.1-.975A3.421,3.421,0,0,1,124.478-17.5Zm9.71,4.232a4.62,4.62,0,0,1,.51-2.214,3.7,3.7,0,0,1,1.4-1.478,3.849,3.849,0,0,1,1.988-.525,3.649,3.649,0,0,1,1.876.465,3.1,3.1,0,0,1,1.186,1.171v-1.5h1.381v8.224h-1.381v-1.531a3.218,3.218,0,0,1-1.208,1.193,3.614,3.614,0,0,1-1.868.473,3.728,3.728,0,0,1-1.981-.54,3.789,3.789,0,0,1-1.4-1.516A4.721,4.721,0,0,1,134.188-13.268Zm6.963.015a3.344,3.344,0,0,0-.375-1.621,2.649,2.649,0,0,0-1.013-1.058,2.759,2.759,0,0,0-1.4-.368,2.763,2.763,0,0,0-1.4.36,2.613,2.613,0,0,0-1.006,1.051,3.344,3.344,0,0,0-.375,1.621,3.421,3.421,0,0,0,.375,1.643,2.654,2.654,0,0,0,1.006,1.066,2.719,2.719,0,0,0,1.4.368,2.759,2.759,0,0,0,1.4-.368,2.638,2.638,0,0,0,1.013-1.066A3.388,3.388,0,0,0,141.151-13.253Zm9.68-6.978V-9.127h-1.366V-20.232Z" transform="translate(97.042 149.759)" fill="#262626"/>
  </g>
</svg>
