<svg xmlns="http://www.w3.org/2000/svg" width="22.823" height="19.019" viewBox="0 0 22.823 19.019">
  <g id="Group_8527" data-name="Group 8527" transform="translate(-1561 -334)">
    <path id="Path_6195" data-name="Path 6195" d="M2083,200.216V188.8q0-3.8,3.8-3.8h15.216q3.8,0,3.8,3.8v11.412q0,3.8-3.8,3.8H2086.8Q2083,204.019,2083,200.216Z" transform="translate(-522 149)" fill="#cf0000" opacity="0.4"/>
    <path id="Path_6196" data-name="Path 6196" d="M2093.675,194.925a2.212,2.212,0,0,1-1.3-.425l-6.228-4.53a.95.95,0,0,1,1.118-1.537l6.229,4.529a.314.314,0,0,0,.37,0l6.229-4.529a.95.95,0,1,1,1.118,1.537l-6.228,4.53A2.212,2.212,0,0,1,2093.675,194.925Z" transform="translate(-521.263 149.871)" fill="#cf0000"/>
  </g>
</svg>
