<svg xmlns="http://www.w3.org/2000/svg" width="17.6" height="23.571" viewBox="0 0 17.6 23.571">
  <g id="Group_8528" data-name="Group 8528" transform="translate(-2432 -764.25)">
    <path id="Path_6197" data-name="Path 6197" d="M2253,3088.314v-7.542q0-3.772,3.771-3.771h10.057q3.771,0,3.771,3.771v7.542q0,3.772-3.771,3.772h-10.057Q2253,3092.086,2253,3088.314Z" transform="translate(179 -2304.265)" fill="#cf0000" opacity="0.4"/>
    <path id="Path_6198" data-name="Path 6198" d="M2257.136,3078.736v-2.515a4.086,4.086,0,0,1,8.171,0v2.515h.943a6,6,0,0,1,.943.073v-2.587a5.971,5.971,0,0,0-11.943,0v2.587a6,6,0,0,1,.943-.073Z" transform="translate(179.578 -2306)" fill="#cf0000"/>
    <path id="Path_6199" data-name="Path 6199" d="M2261.914,3082.322a1.572,1.572,0,0,0-1.571-1.572h-.013a1.566,1.566,0,0,0-1.565,1.572,1.541,1.541,0,0,0,.61,1.209v2.562a.943.943,0,1,0,1.885,0v-2.531A1.542,1.542,0,0,0,2261.914,3082.322Z" transform="translate(180.482 -2303.301)" fill="#cf0000"/>
  </g>
</svg>
