<svg xmlns="http://www.w3.org/2000/svg" xmlns:xlink="http://www.w3.org/1999/xlink" width="18.749" height="18" viewBox="0 0 18.749 18">
  <defs>
    <linearGradient id="linear-gradient" x1="0.5" x2="0.5" y2="1" gradientUnits="objectBoundingBox">
      <stop offset="0" stop-color="#ef4747"/>
      <stop offset="1" stop-color="#cf0000"/>
    </linearGradient>
  </defs>
  <g id="Group_73922" data-name="Group 73922" transform="translate(-224.126 1602.636) rotate(-90)">
    <path id="Path_7121" data-name="Path 7121" d="M3358,582a2.652,2.652,0,0,1,3,3v5a2.652,2.652,0,0,1-3,3h-12a2.652,2.652,0,0,1-3-3v-5a2.652,2.652,0,0,1,3-3Z" transform="translate(-1758.364 -350.125)" opacity="0.4" fill="url(#linear-gradient)"/>
    <path id="Path_7122" data-name="Path 7122" d="M3355.53,577.47l-3-3a.766.766,0,0,0-.245-.162.746.746,0,0,0-.572,0,.766.766,0,0,0-.245.162l-3,3a.75.75,0,0,0,1.06,1.06l1.72-1.719V588a.75.75,0,0,0,1.5,0V576.811l1.72,1.719a.75.75,0,0,0,1.06-1.06Z" transform="translate(-1758.364 -350.125)" fill="url(#linear-gradient)"/>
  </g>
</svg>
