<svg xmlns="http://www.w3.org/2000/svg" width="16.069" height="17.839" viewBox="0 0 16.069 17.839">
  <path id="paperclip" d="M2089.515,367.839a6.475,6.475,0,0,1-4.626-1.9,6.7,6.7,0,0,1,.086-9.439l5.108-5.123a4.69,4.69,0,0,1,6.645,0,4.721,4.721,0,0,1,0,6.656l-5.134,5.148a2.858,2.858,0,0,1-3.954,0,2.807,2.807,0,0,1,0-3.958l4.51-4.522a.892.892,0,1,1,1.263,1.259l-4.51,4.522a1.013,1.013,0,1,0,1.428,1.438l5.134-5.147a2.934,2.934,0,0,0,0-4.137,2.977,2.977,0,0,0-4.119,0l-5.108,5.123a4.97,4.97,0,0,0-.086,6.92,4.71,4.71,0,0,0,3.364,1.373,5.016,5.016,0,0,0,3.531-1.457l4.484-4.5a.892.892,0,0,1,1.263,1.259l-4.484,4.5A6.815,6.815,0,0,1,2089.515,367.839Z" transform="translate(-2082.985 -350)" fill="#262626" opacity="0.4"/>
</svg>
