<svg xmlns="http://www.w3.org/2000/svg" width="20" height="20" viewBox="0 0 20 20">
  <path id="Shape" d="M10,20A10,10,0,0,1,2.929,2.929,10,10,0,1,1,17.071,17.071,9.935,9.935,0,0,1,10,20ZM10,1.818A8.182,8.182,0,1,0,18.182,10,8.191,8.191,0,0,0,10,1.818Zm.03,13.861a7.04,7.04,0,0,1-4.205-1.3.911.911,0,0,1-.182-1.273.909.909,0,0,1,1.272-.183,5.29,5.29,0,0,0,3.116.934,5.072,5.072,0,0,0,3.053-.925A.909.909,0,1,1,14.2,14.373,6.817,6.817,0,0,1,10.03,15.679Zm3.152-6.588a1.364,1.364,0,1,1,1.364-1.364A1.365,1.365,0,0,1,13.182,9.091Zm-6.364,0A1.364,1.364,0,1,1,8.182,7.727,1.365,1.365,0,0,1,6.818,9.091Z" fill="#262626" opacity="0.4"/>
</svg>
