<svg xmlns="http://www.w3.org/2000/svg" width="24" height="24" viewBox="0 0 24 24">
  <g id="Group_8581" data-name="Group 8581" transform="translate(-202 -398)">
    <path id="Path_7177" data-name="Path 7177" d="M3403,1031q-4,0-4-4v-16q0-4,4-4h10.667q4,0,4,4v17.333a2.666,2.666,0,0,0,2.667,2.667Z" transform="translate(-3197 -609)" fill="#fff" opacity="0.3"/>
    <path id="Path_7178" data-name="Path 7178" d="M3413,1014h3.333a2,2,0,0,1,2,2v10a2.686,2.686,0,0,1-2.667,2.667A2.674,2.674,0,0,1,3413,1026Z" transform="translate(-3192.334 -606.667)" fill="#fff"/>
    <path id="Path_7179" data-name="Path 7179" d="M3411.25,1018.583h-8a1,1,0,0,1,0-2h8a1,1,0,0,1,0,2Zm-3-6.333a1,1,0,0,0-1-1h-4a1,1,0,0,0,0,2h4A1,1,0,0,0,3408.25,1012.25Zm4,10.667a1,1,0,0,0-1-1h-8a1,1,0,0,0,0,2h8A1,1,0,0,0,3412.25,1022.917Z" transform="translate(-3195.917 -607.583)" fill="#fff"/>
  </g>
</svg>
