<svg xmlns="http://www.w3.org/2000/svg" width="23.529" height="23.529" viewBox="0 0 23.529 23.529">
  <g id="Group_8589" data-name="Group 8589" transform="translate(-76 -746.529)">
    <path id="Path_7481" data-name="Path 7481" d="M297.784,314.7h0a3.935,3.935,0,0,0-3.941-.005h0a.436.436,0,0,1-.595-.159l-2.186-3.771a.435.435,0,0,1,.158-.594l.013-.007a3.919,3.919,0,0,0,1.954-3.4h0a3.933,3.933,0,0,0-1.962-3.393l-.007,0a.432.432,0,0,1-.157-.591l2.187-3.775a.435.435,0,0,1,.592-.158h0a3.937,3.937,0,0,0,3.944,0l0,0a3.917,3.917,0,0,0,1.953-3.391h0a.44.44,0,0,1,.44-.439h5.171a.44.44,0,0,1,.44.439h0a3.917,3.917,0,0,0,1.953,3.391l0,0a3.937,3.937,0,0,0,3.944,0h0a.434.434,0,0,1,.592.159l2.187,3.772a.435.435,0,0,1-.158.592l-.01.007a3.92,3.92,0,0,0-1.956,3.4h0a3.934,3.934,0,0,0,1.962,3.4l.005,0a.432.432,0,0,1,.157.591l-2.187,3.775a.435.435,0,0,1-.592.158h0a3.937,3.937,0,0,0-3.944,0h0a3.924,3.924,0,0,0-1.954,3.392h0a.44.44,0,0,1-.44.439h-5.175a.438.438,0,0,1-.439-.439h0A3.919,3.919,0,0,0,297.784,314.7Z" transform="translate(-215 451.529)" fill="#fff" opacity="0.4"/>
    <circle id="Ellipse_117" data-name="Ellipse 117" cx="3.837" cy="3.837" r="3.837" transform="translate(83.674 754.203)" fill="#fff"/>
  </g>
</svg>
